<?xml version="1.0" encoding="utf-8"?>
<!-- Generator: Adobe Illustrator 16.0.2, SVG Export Plug-In . SVG Version: 6.00 Build 0)  -->
<!DOCTYPE svg PUBLIC "-//W3C//DTD SVG 1.1//EN" "http://www.w3.org/Graphics/SVG/1.1/DTD/svg11.dtd">
<svg version="1.1" id="Layer_1" xmlns="http://www.w3.org/2000/svg" xmlns:xlink="http://www.w3.org/1999/xlink" x="0px" y="0px"
	 width="506px" height="335px" viewBox="0 0 506 335" enable-background="new 0 0 506 335" xml:space="preserve">
<g>
	<path fill="#FDB930" d="M238.28,8.33c0.96-2.61,4.73-3.19,6.63-1.31c3.58,3.51,5.37,8.41,9.01,11.89c4.8-0.18,9.61-2.47,14.39-1.15
		c2.37,0.53,2.4,3.31,1.76,5.18c-1.71,4.09-6.66,5.92-8.01,10.18c-0.25,4.92,5.52,7.97,4.88,12.99c-0.19,2.93-2.81,5.92-5.91,5.55
		c-4.41,0.21-8.32-3.22-12.74-2.18c-4.28,1.66-7.33,5.49-11.67,7.03c-2.38,0.86-5.62-0.35-6.33-2.91
		c-1.28-4.28,0.46-8.91-0.95-13.14c-2.44-4.03-7.38-5.33-10.88-8.23c0-1.57-0.16-3.17,0.16-4.72c4.04-3.8,10.4-2.03,14.71-5.22
		C237.08,18.62,236.38,12.87,238.28,8.33z"/>
</g>
<g>
	<path fill="#0082C8" d="M117.32,55.4c10.96-6.61,22.73-11.82,34.69-16.33c5.05-2.54,12.11,1.03,12.15,6.92
		c4.75,47.71,9.55,95.41,14.29,143.12c0.55,3.89,0.36,7.95,1.58,11.71c2.82,4.64,9.06,3.47,13.28,5.81c2,1.23,1.08,3.73,1.05,5.62
		c-1.93,0.62-3.88,1.21-5.89,1.52c-14.23,2.25-28.45,4.55-42.69,6.71c-0.52-0.31-1.58-0.93-2.11-1.24
		c-0.28-0.62-0.86-1.88-1.14-2.51c2.18-5.86,11.9-5.62,11.88-12.68c-7.86-44.36-16.14-88.66-24.08-133.01
		c-0.58-2.28-0.49-5.27-2.82-6.59c-3.92-2.41-8.91-1.12-13.01-3.09C114.42,59.03,115.01,56.47,117.32,55.4z"/>
	<path fill="#0082C8" d="M354.74,40.67c7.83-2.41,16.98-2.11,23.9,2.64c10.22,6.72,20.83,12.95,30.16,20.91
		c2.51,2.22,4,5.47,4.44,8.76c0.44,2.7-1.26,5.91-4.24,6.04c-6.85,0.97-12.07-4.4-17.63-7.4c-4.82-2.54-9.67-6.15-15.37-5.84
		c-3.6,0.3-4.78,4.31-5.46,7.25c-2.81,13.65-5.64,27.3-8.52,40.94c-0.62,2.07-0.04,4.15,0.66,6.11c7.18,3.67,15.28,4.84,22.74,7.78
		c3.48,1.39,5.64,6.27,2.84,9.31c-3.85,3.38-9.32,1.6-13.88,1.31c-5.31-0.32-11.09-1.53-15.98,1.18
		c-3.53,13.53-5.6,27.39-8.56,41.05c-1.1,6.79-3.3,13.44-3.58,20.33c0.34,5.35,6.46,6.76,9.24,10.51c1.42,2.51,0.2,5.52-2.16,6.92
		c-13.27-2.26-26.57-4.42-39.81-6.88c-2.34-0.45-5.43-1.78-5.29-4.62c-0.13-2.1,1.97-3.46,3.75-3.98c3.09-0.95,6.31-1.5,9.33-2.71
		c0.63-2.02,1.16-4.07,1.31-6.19c1.64-18.39,3.49-36.76,5.18-55.15c0.17-1.85-0.01-4.03-1.67-5.18c-5.61-4.27-14-3.58-18.65-9.27
		c0.07-2.57,0.55-5.7,3.38-6.62c5.56-1.25,11.53,1.18,16.92-1.07c2.33-0.9,3.05-3.53,3.3-5.77c2.26-17.68,4.62-35.35,6.94-53.02
		C339.43,49.51,346.76,43.08,354.74,40.67z"/>
	<path fill="#0082C8" d="M95.85,84.51c5.22-2.04,11.6,0.39,14.67,4.93c3.52,8.46,6.42,17.19,8.87,26.02
		c0.68,2.1,0.35,4.93-1.85,5.98c-2.18,0.8-4.89,0.41-6.47-1.38c-5.26-5.19-9.45-11.99-16.57-14.85c-7.03-2.19-14.12,1.17-20.54,3.76
		c-4.32,1.65-8.45,5.98-6.93,10.94c4.81,16.53,9.71,33.04,14.69,49.51c4.74,1.03,9.04-1.6,13.14-3.56c2.3-1.26,4.93-2.17,6.68-4.22
		c2.2-3.61-0.28-9.91,4.36-11.96c2.54-0.54,3.72,2.02,4.33,3.98c3.21,9.51,6.46,19.01,9.82,28.47c0.78,2.05,1.14,4.21,1.41,6.38
		c-1.45,0.15-2.92,0.64-4.36,0.31c-4.61-1.59-5.88-8.1-11.07-8.49c-5.01,1.63-10.6,2.52-14.8,5.87c-1.8,1.71-2.17,4.37-1.37,6.66
		c4.08,14.04,8.02,28.12,11.99,42.19c0.62,2.08,1.23,4.67,3.58,5.44c4.38,1.44,8.96-0.69,13.42-0.12c3.24,0.41,3.92,5.25,1.44,7.01
		c-1.37,0.94-2.93,1.53-4.45,2.16c-15.36,6.16-30.55,12.76-45.97,18.78c-1.07-0.38-2.14-0.75-3.21-1.12
		c-0.11-1.26-0.46-2.54-0.23-3.8c2.46-4.64,7.87-7.17,9.48-12.34c0.77-2.04-0.18-4.14-0.86-6.05
		c-15.43-37.23-30.84-74.46-46.28-111.69c-1.21-2.67-1.91-5.87-4.34-7.73c-4.06-1.19-8.2,1.39-12.26,0.41
		c-1.97-0.38-2.76-2.28-3.63-3.83c0.81-1.57,1.31-3.63,3.19-4.25C39.63,106.45,67.57,95.03,95.85,84.51z"/>
	<path fill="#0082C8" d="M264,89.38c2.66-3.53,7.57-3.62,11.51-2.76c9.15,1.98,18.07,4.92,26.85,8.15c2.05,0.92,4.97,1.69,5.32,4.33
		c0.36,1.55-0.7,2.91-1.24,4.28c-2.78,0.54-5.7,0.62-8.32,1.74c-1.34,1.16-1.62,3.08-1.82,4.74c-1.18,12-0.92,24.07-1.28,36.1
		c-1.04,26.67-0.31,53.42-2.89,80.02c-0.74,7.63-3.86,15.37-10.07,20.15c-7.88,6.18-18.35,7.35-28.04,7.39
		c-13.47,0.21-26.75-2.42-40.14-3.34c-3.51,2.69-3.77,7.3-5.73,10.94c-1.23,2.52-5.25,1.33-5.5-1.28
		c-0.97-8.25-1.05-16.58-1.81-24.85c-0.2-3.45-0.97-7.64,1.81-10.31c3.13-3.08,7.97-2.33,11.72-0.95
		c13.47,4.67,26.87,9.56,40.63,13.34c2.54,0.49,5.32,1.81,7.86,0.79c2.32-0.9,1.94-3.88,2.1-5.88c-0.42-14.54-1.14-29.06-1.51-43.59
		c-6.07,7.65-14.42,13.35-23.56,16.7c-6.64,2.37-14.19,0.88-19.93-3.04c-8.3-5.62-14.43-13.8-19.92-22.06
		c-3.23-4.57-4.81-10.3-4.32-15.88c1.73-15.98,3.17-31.98,4.82-47.96c0.15-3.1,0.86-6.79-1.53-9.25c-3.09-3.3-8.48-2.21-11.58-5.58
		c0.2-1.32,0.51-2.6,0.93-3.86c1.42-2.05,4.12-2.22,6.34-2.78c10.41-2.04,20.9-3.72,31.41-5.24c3.1-0.59,6.55,0.39,8.44,3.03
		c2.23,2.64,1.78,6.34,1.49,9.53c-2.6,21.35-5.07,42.72-8.19,64.01c-0.95,6.16,2.48,12.18,6.85,16.29
		c3.06,2.98,8.02,4.73,11.94,2.35c6.25-4.34,11.91-10.21,14.2-17.62c1.65-5.03,0.97-10.37,1.31-15.56
		c1.06-16.81,1.07-33.66,1.11-50.5C263.39,97.12,262.24,93,264,89.38z"/>
	<path fill="#0082C8" d="M431.97,94.9c10.59-8.4,27.66-8.01,37.2,1.87c6.52,6.21,13.18,12.28,19.43,18.76
		c3.42,3.89,7.88,7.69,8.38,13.2c0.13,2.61,0.4,6.23-2.39,7.6c-3.85,1.39-8.05-0.47-10.98-2.99c-5.33-4.64-10.31-9.78-16.29-13.6
		c-2.35-1.28-5.33-2.89-7.94-1.39c-2.7,1.41-3.71,4.47-4.78,7.1c-5.1,12.65-10.33,25.24-15.43,37.89c-1.01,2.1-1.02,4.97,1.12,6.39
		c6.25,4.77,14.18,6.78,20.38,11.64c2.8,2.23,2.42,6.31,0.66,9.07c-9.7,3.11-18.67-5.29-28.41-3.71c-1.43,0.42-2.57,1.5-3.05,2.9
		c-6.89,16.95-13.51,34.01-20.44,50.94c-1.13,2.76-2.07,6-0.75,8.87c1.74,2.85,4.76,4.71,6.35,7.67c1.44,3.09-1.41,7.81-5.05,6.06
		c-12.19-4.44-24.41-8.83-36.5-13.56c-2.71-0.94-5.07-3.66-3.7-6.64c3.62-3.4,9.02-1.27,13.23-2.93c2.63-1.82,2.66-5.45,3.7-8.21
		c4.35-15.64,8.86-31.24,13.34-46.84c0.62-3.01,2.8-6.7,0.43-9.43c-4.25-4.4-10.65-5.85-15.07-10.04c-2.82-2.95-0.4-8.27,3.61-8.43
		c5.45,0.07,10.63,3.37,16.17,2.13c2.38-0.53,3.53-2.89,4.2-5.01c5.36-16.54,10.79-33.05,16.08-49.61
		C426.61,100.82,428.81,97.32,431.97,94.9z"/>
</g>
<g>
	<path fill="#9AA5B1" d="M85.77,305.53c6.57-0.08,13.15,0.01,19.73-0.07c0,1.67,0.01,3.34,0.01,5.02c-3.83,0.01-7.67,0.02-11.5,0.02
		c0,1-0.01,3-0.01,3.99c3.24,0.01,6.47,0,9.7-0.03c0,1.69,0,3.38,0,5.08c-3.23-0.04-6.46-0.04-9.68-0.03
		c-0.01,3.07-0.02,6.15-0.04,9.22c-2.74,0-5.49,0-8.24,0.01C85.76,321,85.7,313.26,85.77,305.53z"/>
	<path fill="#9AA5B1" d="M137.81,305.53c2.93-0.02,5.87-0.25,8.79,0.08c2.05,2.23,3.05,5.24,4.64,7.8c1.62-2.62,3.18-5.28,4.72-7.95
		c3.02,0.04,6.04,0.04,9.06,0.01c-2.72,4.13-5.66,8.11-8.44,12.2c-2.33,3.2-1.02,7.43-1.36,11.09c-2.75-0.01-5.49-0.01-8.23,0.01
		c-0.08-3.18,0.35-6.42-0.34-9.55C143.95,314.52,140.53,310.24,137.81,305.53z"/>
	<g>
		<path fill="#9AA5B1" d="M229.4,305.55c5.33-1.09,11.3-0.85,16.01,2.13c6.36,4,6.26,14.65,0.03,18.74
			c-4.49,2.93-10.17,3-15.31,2.28c-5.02-0.72-9.92-4.42-10.48-9.73C218.3,312.68,223.17,306.45,229.4,305.55z M232.42,310.66
			c-4.14,0.89-5.9,6.3-3.78,9.76c1.61,3.55,6.25,4.02,9.51,2.78c4.18-1.77,4.83-7.97,1.78-11.05
			C237.88,310.46,234.96,309.77,232.42,310.66z"/>
	</g>
	<path fill="#9AA5B1" d="M341.06,305.43c2.69,0.05,5.38,0.05,8.08-0.02c0.39,5.07-0.34,10.21,0.45,15.25
		c0.45,4.17,7.98,4.44,8.48,0.2c0.47-5.07,0.07-10.18,0.11-15.27c2.77-0.09,5.53-0.12,8.31-0.12c-0.16,6.17,0.41,12.4-0.31,18.55
		c-2.29,4.88-8.56,5.05-13.21,5.04c-4.47,0.05-10.77-1.07-11.7-6.33C340.63,316.99,341.08,311.19,341.06,305.43z"/>
	<path fill="#9AA5B1" d="M115.55,305.47c2.77-0.02,5.53,0.02,8.3,0.11c-0.18,5.96-0.03,11.91-0.17,17.86
		c3.95,0.06,7.91,0.05,11.86,0.03c-0.03,1.76-0.05,3.53-0.08,5.3c-6.64,0-13.28-0.09-19.91,0.02
		C115.5,321.02,115.47,313.24,115.55,305.47z"/>
	<path fill="#9AA5B1" d="M191.24,328.78c-0.01-7.77-0.03-15.55,0.05-23.32c6.6,0.11,13.2-0.04,19.8,0.04
		c-0.05,1.67-0.08,3.34-0.12,5.02c-3.82-0.02-7.65-0.02-11.47-0.01c0,0.99,0,2.97,0.01,3.96c3.25-0.01,6.51,0.02,9.77,0.06
		c0,1.63,0.01,3.27,0.02,4.91c-3.26,0.07-6.52,0.1-9.78,0.09c-0.01,3.08-0.02,6.16-0.04,9.24
		C196.73,328.77,193.98,328.77,191.24,328.78z"/>
	<path fill="#9AA5B1" d="M259.97,305.45c5.99,0.27,12.03-0.42,17.99,0.39c4.33,0.5,6.29,5.91,4.35,9.5
		c-1.24,1.5-3.05,2.35-4.64,3.42c1.8,3.33,3.59,6.68,5.42,10c-2.98-0.02-5.96-0.03-8.94-0.03c-1.8-4.37-3.5-8.79-5.65-12.99
		c1.85-0.17,3.8-0.02,5.57-0.72c0.95-1.11,0.57-2.78,0.92-4.1c-2.41-0.25-4.83-0.4-7.25-0.48c0.01,6.12,0,12.24-0.01,18.36
		c-2.59-0.03-5.17-0.04-7.74-0.03C259.97,321,260,313.23,259.97,305.45z"/>
	<path fill="#9AA5B1" d="M311.77,305.48c6.58,0.04,13.15-0.03,19.73,0.02c0.01,1.66,0.02,3.31,0.03,4.97
		c-3.81,0.04-7.62,0.05-11.43,0.02c-0.04,1.32-0.08,2.64-0.11,3.97c3.24,0.02,6.49,0.04,9.74,0.04c-0.01,1.66-0.01,3.33,0,5
		c-3.24,0-6.47,0.01-9.7,0.03c-0.01,3.08-0.02,6.16-0.02,9.25c-2.74-0.03-5.49-0.02-8.23-0.01
		C311.7,321.01,311.75,313.24,311.77,305.48z"/>
	<path fill="#9AA5B1" d="M377.51,305.48c3.27,0.02,6.54,0,9.81-0.08c3.02,4.67,5.99,9.39,9.12,13.99c0.61-4.59,0.21-9.23,0.32-13.85
		c2.41-0.04,4.83-0.07,7.26-0.11c-0.04,7.78-0.01,15.56-0.02,23.35c-3.17-0.07-6.37,0.25-9.5-0.26c-3.41-4.61-6.15-9.7-9.77-14.17
		c0.02,4.8,0.06,9.6,0.03,14.39c-2.42,0.01-4.84,0.01-7.25,0.03C377.48,321,377.46,313.24,377.51,305.48z"/>
</g>
</svg>
